<?xml version="1.0" standalone="yes"?>
<!DOCTYPE svg PUBLIC "-//W3C//DTD SVG 1.1//EN" "http://www.w3.org/Graphics/SVG/1.1/DTD/svg11.dtd"[
<!ENTITY E16 'stroke:none;opacity:1;fill:rgb(68,154,223);'><!ENTITY E27 'M 20.824 23.115 20.824 7.098999 M 17.3572 17.48 17.3572 12.7339 M 13.8904 21.2046 13.8904 9.009602 M 10.4236 18.6248 10.4236 11.5896 M 6.9568 16.3923 6.9568 13.822 '><!ENTITY E31 'matrix(1.00 0.00 0.00 1.00 564.00 4.00 ) '><!ENTITY E10 'matrix(1.00 0.00 0.00 1.00 0.00 0.00 ) '><!ENTITY E15 'matrix(1.00 0.00 0.00 1.00 884.00 4.00 ) '><!ENTITY E13 'matrix(1.00 0.00 0.00 1.00 964.00 164.00 ) '><!ENTITY E7 'stroke:none;fill-rule:evenodd;opacity:1;fill:rgb(255,255,255);'><!ENTITY E3 'stroke:rgb(169,169,169);fill:none;stroke-linecap:butt;stroke-miterlimit:9;opacity:1;stroke-width:2;stroke-linejoin:miter;'><!ENTITY E39 'M 18.422 13 13.4357 18.5006 10.8556 15.9868 6.500101 20.5001 23.9571 20.48582 z '><!ENTITY E34 'M 5.5001 19.484 10.6493 19.484 16.2743 10.2485 19.3728 10.2485 M 14.6769 17.1481 16.3089 19.4828 19.2202 19.4828 M 5.500199 10.2437 10.7586 10.2437 12.1652 12.8707 '><!ENTITY E32 'M 19.156 13.888 19.156 10.3647 19.156 6.841399 25.2585 10.3647 22.2072 12.1264 z '><!ENTITY E33 'M 19.156 22.97 19.156 19.4467 19.156 15.9234 25.2585 19.4467 22.2072 21.2084 z '><!ENTITY E29 'matrix(1.00 0.00 0.00 1.00 644.00 84.00 ) '><!ENTITY E18 'stroke:rgb(255,255,255);fill:none;stroke-linecap:butt;stroke-miterlimit:9;opacity:1;stroke-width:2;stroke-linejoin:miter;'><!ENTITY E1 'stroke:rgb(169,169,169);fill:none;stroke-linecap:butt;stroke-miterlimit:9;opacity:1;stroke-width:1;stroke-linejoin:miter;'><!ENTITY E17 'M 16.849 10.062 23.4027 10.062 M 16.6038 19.6084 23.3505 19.6084 M 12.3075 17.1615 7.5719 21.8971 M 7.577335 17.152 12.31704 21.8917 M 6.564136 10.0047 13.30904 10.0047 M 9.936636 6.6288 9.936636 13.3806 '><!ENTITY E38 'matrix(1.00 0.00 0.00 1.00 484.00 4.00 ) '><!ENTITY E8 'stroke:none;opacity:1;fill:rgb(255,255,255);'><!ENTITY E51 'matrix(1.00 0.00 0.00 1.00 164.00 4.00 ) '><!ENTITY E56 'matrix(1.00 0.00 0.00 1.00 4.00 4.00 ) '><!ENTITY E53 'matrix(1.00 0.00 0.00 1.00 84.00 4.00 ) '><!ENTITY E49 'matrix(1.00 0.00 0.00 1.00 244.00 4.00 ) '><!ENTITY E43 'matrix(1.00 0.00 0.00 1.00 404.00 4.00 ) '><!ENTITY E41 'matrix(1.00 0.00 0.00 1.00 484.00 84.00 ) '><!ENTITY E36 'matrix(1.00 0.00 0.00 1.00 564.00 84.00 ) '><!ENTITY E46 'matrix(1.00 0.00 0.00 1.00 324.00 4.00 ) '><!ENTITY E26 'matrix(1.00 0.00 0.00 1.00 644.00 4.00 ) '><!ENTITY E22 'matrix(1.00 0.00 0.00 1.00 724.00 4.00 ) '><!ENTITY E4 'matrix(1.00 0.00 0.00 1.00 964.00 4.00 ) '><!ENTITY E20 'matrix(1.00 0.00 0.00 1.00 804.00 4.00 ) '>
]>
<svg width="1028.984" height="212.8252" id="SvgGdi_output" xmlns="http://www.w3.org/2000/svg" xmlns:xlink="http://www.w3.org/1999/xlink">
  <style>text { fill: #000; } @media (prefers-color-scheme: dark) { text { fill: #eee; } }</style>
  <rect id="background" height="100.00%" style="fill:none;" width="100.00%" y="0.00" x="0.00" />
  <g style="shape-rendering:auto;" id="root_group">
    <line y1="19.00" style="stroke:rgb(169,169,169);fill:none;stroke-linecap:butt;stroke-miterlimit:9;opacity:1;stroke-width:1;stroke-linejoin:miter;" id="2" x2="960.00" y2="19.00" x1="918.00" />
    <line y1="19.00" style="stroke:rgb(169,169,169);fill:none;stroke-linecap:butt;stroke-miterlimit:9;opacity:1;stroke-width:1;stroke-linejoin:miter;" id="3" x2="880.00" y2="19.00" x1="838.00" />
    <line y1="19.00" style="stroke:rgb(169,169,169);fill:none;stroke-linecap:butt;stroke-miterlimit:9;opacity:1;stroke-width:1;stroke-linejoin:miter;" id="4" x2="800.00" y2="19.00" x1="758.00" />
    <line y1="19.00" style="stroke:rgb(169,169,169);fill:none;stroke-linecap:butt;stroke-miterlimit:9;opacity:1;stroke-width:1;stroke-linejoin:miter;" id="5" x2="720.00" y2="19.00" x1="678.00" />
    <line y1="99.00" style="stroke:rgb(169,169,169);fill:none;stroke-linecap:butt;stroke-miterlimit:9;opacity:1;stroke-width:1;stroke-linejoin:miter;" id="6" x2="720.00" y2="19.00" x1="678.00" />
    <line y1="19.00" style="stroke:rgb(169,169,169);fill:none;stroke-linecap:butt;stroke-miterlimit:9;opacity:1;stroke-width:1;stroke-linejoin:miter;" id="7" x2="640.00" y2="19.00" x1="598.00" />
    <line y1="99.00" style="stroke:rgb(169,169,169);fill:none;stroke-linecap:butt;stroke-miterlimit:9;opacity:1;stroke-width:1;stroke-linejoin:miter;" id="8" x2="640.00" y2="99.00" x1="598.00" />
    <line y1="19.00" style="stroke:rgb(169,169,169);fill:none;stroke-linecap:butt;stroke-miterlimit:9;opacity:1;stroke-width:1;stroke-linejoin:miter;" id="9" x2="560.00" y2="19.00" x1="518.00" />
    <line y1="99.00" style="stroke:rgb(169,169,169);fill:none;stroke-linecap:butt;stroke-miterlimit:9;opacity:1;stroke-width:1;stroke-linejoin:miter;" id="10" x2="560.00" y2="99.00" x1="518.00" />
    <line y1="19.00" style="stroke:rgb(169,169,169);fill:none;stroke-linecap:butt;stroke-miterlimit:9;opacity:1;stroke-width:1;stroke-linejoin:miter;" id="11" x2="480.00" y2="19.00" x1="438.00" />
    <line y1="19.00" style="stroke:rgb(169,169,169);fill:none;stroke-linecap:butt;stroke-miterlimit:9;opacity:1;stroke-width:1;stroke-linejoin:miter;" id="12" x2="480.00" y2="99.00" x1="438.00" />
    <line y1="19.00" style="stroke:rgb(169,169,169);fill:none;stroke-linecap:butt;stroke-miterlimit:9;opacity:1;stroke-width:1;stroke-linejoin:miter;" id="13" x2="400.00" y2="19.00" x1="358.00" />
    <line y1="19.00" style="stroke:rgb(169,169,169);fill:none;stroke-linecap:butt;stroke-miterlimit:9;opacity:1;stroke-width:1;stroke-linejoin:miter;" id="14" x2="320.00" y2="19.00" x1="278.00" />
    <line y1="19.00" style="stroke:rgb(169,169,169);fill:none;stroke-linecap:butt;stroke-miterlimit:9;opacity:1;stroke-width:1;stroke-linejoin:miter;" id="15" x2="240.00" y2="19.00" x1="198.00" />
    <line y1="19.00" style="stroke:rgb(169,169,169);fill:none;stroke-linecap:butt;stroke-miterlimit:9;opacity:1;stroke-width:1;stroke-linejoin:miter;" id="16" x2="160.00" y2="19.00" x1="118.00" />
    <line y1="19.00" style="stroke:rgb(169,169,169);fill:none;stroke-linecap:butt;stroke-miterlimit:9;opacity:1;stroke-width:1;stroke-linejoin:miter;" id="17" x2="80.00" y2="19.00" x1="38.00" />
    <path style="stroke:rgb(169,169,169);fill:none;stroke-linecap:butt;stroke-miterlimit:9;opacity:1;stroke-width:2;stroke-linejoin:miter;" transform="matrix(1.00 0.00 0.00 1.00 964.00 4.00 ) " id="51" d="M 10.158 33.2 C 3.4054 31.7591 -1.861 26.4692 -3.271 19.71 " />
    <ellipse id="52" cy="15.00" cx="15.00" transform="matrix(1.00 0.00 0.00 1.00 964.00 4.00 ) " rx="15.00" ry="15.00" style="stroke:none;opacity:1;fill:rgb(155,91,179);" />
    <path style="stroke:none;fill-rule:evenodd;opacity:1;fill:rgb(255,255,255);" transform="matrix(1.00 0.00 0.00 1.00 964.00 4.00 ) " id="56" d="M 11.656 8.2 11.99975 8.7 16.31225 14.7937 11.65605 21.4187 11.28105 21.9187 14.74985 21.9187 14.8436 21.7624 17.9998 17.0124 18.46855 17.7 21.15605 21.7624 21.2498 21.9187 24.7498 21.9187 24.40605 21.4187 19.65605 14.6687 24.06225 8.699997 24.406 8.199997 20.9998 8.199997 20.90605 8.324997 18.68725 11.4187 C 18.46251 11.7285 18.22333 12.1062 17.9685 12.4812 17.77046 12.1547 17.58677 11.8424 17.31225 11.4187 L 15.28105 8.356197 15.1873 8.199997 11.6561 8.199997 z " />
    <ellipse id="57" cy="12.78" cx="8.79" transform="matrix(1.00 0.00 0.00 1.00 964.00 4.00 ) " rx="3.00" ry="3.00" style="stroke:none;opacity:1;fill:rgb(255,255,255);" />
    <text id="58" transform="matrix(1.00 0.00 0.00 1.00 0.00 0.00 ) " x="964.00px" y="39.00px" style="stroke:none;clip-path:url(#60_text_clipper);font-family:Microsoft Sans Serif;font-size:8.25pt;opacity:1;">
      <tspan dy="8.25pt" id="62">Distance</tspan>
    </text>
    <ellipse id="64" cy="179.00" cx="979.00" rx="15.00" ry="15.00" style="stroke:none;opacity:1;fill:rgb(169,169,169);" />
    <path style="stroke:rgb(169,169,169);fill:none;stroke-linecap:butt;stroke-miterlimit:9;opacity:1;stroke-width:2;stroke-linejoin:miter;" transform="matrix(1.00 0.00 0.00 1.00 964.00 164.00 ) " id="67" d="M 1.5363 7.8 C 1.99103 6.9385 2.52798 6.1205 3.1403 5.3587 3.7527 4.5967 4.4403 3.8909 5.1968 3.254 5.95315 2.617 6.7782 2.049 7.665299 1.5627 M 0.4537992 19.4997 C 0.1435492 18.4956 -0.05714077 17.4835 -0.1564507 16.4769 -0.2551987 15.4701 -0.2516447 14.4684 -0.1525816 13.4844 -0.05334165 12.5007 0.1414284 11.5347 0.4251484 10.5993 M 7.892348 28.3993 C 7.030958 27.9447 6.212848 27.4077 5.450948 26.7954 4.689008 26.1831 3.983248 25.4954 3.346348 24.739 2.709558 23.9826 2.141548 23.1575 1.655148 22.2704 M 19.49415 29.4993 C 18.48995 29.8096 17.47785 30.0103 16.47125 30.1096 15.46445 30.2084 14.46285 30.2049 13.47895 30.1018 12.49507 30.0028 11.52915 29.8079 10.59365 29.5242 M 28.46365 22.0993 C 28.00892 22.9606 27.472 23.7788 26.85965 24.5407 26.24738 25.3026 25.55945 26.0084 24.80315 26.6453 24.0468 27.2822 23.22175 27.8502 22.33465 28.3365 M 29.54565 10.4995 C 29.85594 11.5037 30.05659 12.5157 30.15594 13.5224 30.25481 14.5292 30.25114 15.531 30.15199 16.5147 30.05279 17.4986 29.85802 18.4646 29.5743 19.4 M 22.10769 1.499998 C 22.96908 1.954698 23.7872 2.491698 24.5491 3.103898 25.31104 3.716298 26.0168 4.404098 26.65369 5.160398 27.29052 5.916898 27.85859 6.741898 28.34499 7.629098 M 10.50499 0.3999977 C 11.50919 0.08969772 12.52109 -0.1109023 13.52779 -0.2103023 14.53469 -0.3090023 15.53619 -0.3055023 16.52009 -0.2103023 17.50401 -0.1111023 18.46999 0.08369771 19.40549 0.3673977 " />
    <ellipse id="73" cy="9.06" cx="15.01" transform="matrix(1.00 0.00 0.00 1.00 964.00 164.00 ) " rx="3.50" ry="3.50" style="stroke:none;opacity:1;fill:rgb(255,255,255);" />
    <ellipse id="74" cy="18.49" cx="9.12" transform="matrix(1.00 0.00 0.00 1.00 964.00 164.00 ) " rx="3.50" ry="3.50" style="stroke:none;opacity:1;fill:rgb(255,255,255);" />
    <ellipse id="75" cy="18.46" cx="20.88" transform="matrix(1.00 0.00 0.00 1.00 964.00 164.00 ) " rx="3.50" ry="3.50" style="stroke:none;opacity:1;fill:rgb(255,255,255);" />
    <ellipse id="76" cy="179.00" cx="979.00" rx="15.00" ry="15.00" style="fill:url(#77_HatchBrush);" />
    <text id="80" transform="matrix(1.00 0.00 0.00 1.00 0.00 0.00 ) " x="964.00px" y="199.00px" style="stroke:none;clip-path:url(#82_text_clipper);font-family:Microsoft Sans Serif;font-size:8.25pt;opacity:1;">
      <tspan dy="8.25pt" id="84">Harp Sound</tspan>
    </text>
    <ellipse id="88" cy="15.00" cx="15.00" transform="matrix(1.00 0.00 0.00 1.00 884.00 4.00 ) " rx="15.00" ry="15.00" style="stroke:none;opacity:1;fill:rgb(68,154,223);" />
    <path d="M 16.849 10.062 23.4027 10.062 M 16.6038 19.6084 23.3505 19.6084 M 12.3075 17.1615 7.5719 21.8971 M 7.577335 17.152 12.31704 21.8917 M 6.564136 10.0047 13.30904 10.0047 M 9.936636 6.6288 9.936636 13.3806 " style="stroke:rgb(255,255,255);fill:none;stroke-linecap:butt;stroke-miterlimit:9;opacity:1;stroke-width:2;stroke-linejoin:miter;" transform="matrix(1.00 0.00 0.00 1.00 884.00 4.00 ) " id="93" />
    <ellipse id="94" cy="16.33" cx="19.93" transform="matrix(1.00 0.00 0.00 1.00 884.00 4.00 ) " rx="1.30" ry="1.30" style="stroke:none;opacity:1;fill:rgb(255,255,255);" />
    <ellipse id="95" cy="22.83" cx="19.93" transform="matrix(1.00 0.00 0.00 1.00 884.00 4.00 ) " rx="1.30" ry="1.30" style="stroke:none;opacity:1;fill:rgb(255,255,255);" />
    <text id="96" transform="matrix(1.00 0.00 0.00 1.00 0.00 0.00 ) " x="884.00px" y="39.00px" style="stroke:none;clip-path:url(#98_text_clipper);font-family:Microsoft Sans Serif;font-size:8.25pt;opacity:1;">
      <tspan dy="8.25pt" id="100">Sqrt</tspan>
    </text>
    <ellipse id="102" cy="15.00" cx="15.00" transform="matrix(1.00 0.00 0.00 1.00 804.00 4.00 ) " rx="15.00" ry="15.00" style="stroke:none;opacity:1;fill:rgb(68,154,223);" />
    <path d="M 16.849 10.062 23.4027 10.062 M 16.6038 19.6084 23.3505 19.6084 M 12.3075 17.1615 7.5719 21.8971 M 7.577335 17.152 12.31704 21.8917 M 6.564136 10.0047 13.30904 10.0047 M 9.936636 6.6288 9.936636 13.3806 " style="stroke:rgb(255,255,255);fill:none;stroke-linecap:butt;stroke-miterlimit:9;opacity:1;stroke-width:2;stroke-linejoin:miter;" transform="matrix(1.00 0.00 0.00 1.00 804.00 4.00 ) " id="103" />
    <ellipse id="104" cy="16.33" cx="19.93" transform="matrix(1.00 0.00 0.00 1.00 804.00 4.00 ) " rx="1.30" ry="1.30" style="stroke:none;opacity:1;fill:rgb(255,255,255);" />
    <ellipse id="105" cy="22.83" cx="19.93" transform="matrix(1.00 0.00 0.00 1.00 804.00 4.00 ) " rx="1.30" ry="1.30" style="stroke:none;opacity:1;fill:rgb(255,255,255);" />
    <text id="106" transform="matrix(1.00 0.00 0.00 1.00 0.00 0.00 ) " x="804.00px" y="39.00px" style="stroke:none;clip-path:url(#108_text_clipper);font-family:Microsoft Sans Serif;font-size:8.25pt;opacity:1;">
      <tspan dy="8.25pt" id="110">Add</tspan>
    </text>
    <ellipse id="114" cy="15.00" cx="15.00" transform="matrix(1.00 0.00 0.00 1.00 724.00 4.00 ) " rx="15.00" ry="15.00" style="stroke:none;opacity:1;fill:rgb(238,192,75);" />
    <path style="stroke:none;fill-rule:evenodd;opacity:1;fill:rgb(255,255,255);" transform="matrix(1.00 0.00 0.00 1.00 724.00 4.00 ) " id="117" d="M 12.246 6.0137 12.246 6.019559 C 12.05806 6.020259 11.89471 6.040434 11.76748 6.066434 10.86869 6.352735 10.89631 6.934374 9.87688 7.685534 8.863379 8.264335 8.35338 7.819914 7.61518 8.419914 6.87845 9.015514 7.39292 10.38251 7.08393 10.64841 6.77722 11.18001 5.82553 11.65471 5.65233 12.32611 5.50916 13.18481 6.04191 13.79701 6.02147 14.53311 6.08287 15.14641 5.41127 15.49489 5.5078 15.99211 5.79702 16.80421 6.35438 17.29221 6.6172 17.51751 6.663351 17.54951 6.700028 17.5985 6.714856 17.6015 6.790713 17.792 6.858586 17.98645 6.955086 18.16595 6.949606 18.13995 6.948576 18.11382 6.943367 18.08782 6.998228 18.30542 7.055077 18.52401 7.132816 18.73821 8.683116 22.09901 12.81412 24.68611 17.34182 24.11711 19.54102 23.84771 22.82442 22.33171 24.16602 18.73821 23.22044 19.58671 21.53152 20.32421 20.77732 20.38081 23.33002 19.10511 24.70712 16.93741 24.32031 13.97461 23.79154 15.23341 23.09341 16.20131 22.22071 16.86521 24.07451 13.97551 23.75691 12.48131 22.38478 10.83981 23.36615 13.53881 22.09719 16.53431 19.33208 18.66401 20.45238 18.78541 21.51657 18.51614 22.50198 17.71284 21.01318 19.37354 19.14968 20.20834 17.01368 20.43554 18.03358 21.30254 19.01818 21.69454 19.95898 21.52734 17.34458 22.24884 15.15478 21.45428 12.49018 18.80074 12.3507 19.51504 13.10514 20.62754 13.88278 21.33784 9.373278 19.38284 8.976177 13.29584 14.46872 11.79294 14.47202 11.79294 14.47518 11.79384 14.47848 11.79294 17.74978 13.70674 21.86528 13.58084 22.05078 12.34372 22.50885 10.86082 19.96508 7.805223 16.16208 7.007823 15.4618 6.871123 14.79228 6.817344 14.15428 6.835943 14.16706 6.835943 14.17858 6.836182 14.19139 6.826178 13.58399 6.177278 12.80989 6.011678 12.24609 6.013678 z M 17.17769 9.046878 C 17.72373 9.046878 18.22259 9.543848 18.22259 10.08988 18.22259 10.63598 17.72371 11.13288 17.17769 11.13288 16.63165 11.13288 16.13469 10.63601 16.13469 10.08988 16.13474 9.543879 16.63162 9.046778 17.17769 9.046878 z " />
    <ellipse id="118" cy="19.00" cx="724.00" rx="3.00" ry="3.00" style="stroke:rgb(169,169,169);fill:none;stroke-linecap:butt;stroke-miterlimit:9;opacity:1;stroke-width:2;stroke-linejoin:miter;" />
    <ellipse id="119" cy="19.00" cx="724.00" rx="3.00" ry="3.00" style="stroke:none;opacity:1;fill:rgb(255,255,255);" />
    <text id="120" transform="matrix(1.00 0.00 0.00 1.00 0.00 0.00 ) " x="724.00px" y="39.00px" style="stroke:none;clip-path:url(#122_text_clipper);font-family:Microsoft Sans Serif;font-size:8.25pt;opacity:1;">
      <tspan dy="8.25pt" id="124">Zip</tspan>
    </text>
    <ellipse id="126" cy="15.00" cx="15.00" transform="matrix(1.00 0.00 0.00 1.00 644.00 4.00 ) " rx="15.00" ry="15.00" style="stroke:none;opacity:1;fill:rgb(68,154,223);" />
    <path d="M 20.824 23.115 20.824 7.098999 M 17.3572 17.48 17.3572 12.7339 M 13.8904 21.2046 13.8904 9.009602 M 10.4236 18.6248 10.4236 11.5896 M 6.9568 16.3923 6.9568 13.822 " style="stroke:rgb(255,255,255);fill:none;stroke-linecap:butt;stroke-miterlimit:9;opacity:1;stroke-width:2;stroke-linejoin:miter;" transform="matrix(1.00 0.00 0.00 1.00 644.00 4.00 ) " id="129" />
    <text id="130" transform="matrix(1.00 0.00 0.00 1.00 0.00 0.00 ) " x="644.00px" y="39.00px" style="stroke:none;clip-path:url(#132_text_clipper);font-family:Microsoft Sans Serif;font-size:8.25pt;opacity:1;">
      <tspan dy="8.25pt" id="134">Pow</tspan>
    </text>
    <ellipse id="136" cy="15.00" cx="15.00" transform="matrix(1.00 0.00 0.00 1.00 644.00 84.00 ) " rx="15.00" ry="15.00" style="stroke:none;opacity:1;fill:rgb(68,154,223);" />
    <path d="M 20.824 23.115 20.824 7.098999 M 17.3572 17.48 17.3572 12.7339 M 13.8904 21.2046 13.8904 9.009602 M 10.4236 18.6248 10.4236 11.5896 M 6.9568 16.3923 6.9568 13.822 " style="stroke:rgb(255,255,255);fill:none;stroke-linecap:butt;stroke-miterlimit:9;opacity:1;stroke-width:2;stroke-linejoin:miter;" transform="matrix(1.00 0.00 0.00 1.00 644.00 84.00 ) " id="137" />
    <text id="138" transform="matrix(1.00 0.00 0.00 1.00 0.00 0.00 ) " x="644.00px" y="119.00px" style="stroke:none;clip-path:url(#140_text_clipper);font-family:Microsoft Sans Serif;font-size:8.25pt;opacity:1;">
      <tspan dy="8.25pt" id="142">Pow</tspan>
    </text>
    <ellipse id="144" cy="15.00" cx="15.00" transform="matrix(1.00 0.00 0.00 1.00 564.00 4.00 ) " rx="15.00" ry="15.00" style="stroke:none;opacity:1;fill:rgb(68,154,223);" />
    <path d="M 19.156 13.888 19.156 10.3647 19.156 6.841399 25.2585 10.3647 22.2072 12.1264 z " style="stroke:none;fill-rule:evenodd;opacity:1;fill:rgb(255,255,255);" transform="matrix(1.00 0.00 0.00 1.00 564.00 4.00 ) " id="149" />
    <path d="M 19.156 22.97 19.156 19.4467 19.156 15.9234 25.2585 19.4467 22.2072 21.2084 z " style="stroke:none;fill-rule:evenodd;opacity:1;fill:rgb(255,255,255);" transform="matrix(1.00 0.00 0.00 1.00 564.00 4.00 ) " id="150" />
    <path d="M 5.5001 19.484 10.6493 19.484 16.2743 10.2485 19.3728 10.2485 M 14.6769 17.1481 16.3089 19.4828 19.2202 19.4828 M 5.500199 10.2437 10.7586 10.2437 12.1652 12.8707 " style="stroke:rgb(255,255,255);fill:none;stroke-linecap:butt;stroke-miterlimit:9;opacity:1;stroke-width:2;stroke-linejoin:miter;" transform="matrix(1.00 0.00 0.00 1.00 564.00 4.00 ) " id="151" />
    <text id="152" transform="matrix(1.00 0.00 0.00 1.00 0.00 0.00 ) " x="564.00px" y="39.00px" style="stroke:none;clip-path:url(#154_text_clipper);font-family:Microsoft Sans Serif;font-size:8.25pt;opacity:1;">
      <tspan dy="8.25pt" id="156">X</tspan>
    </text>
    <ellipse id="158" cy="15.00" cx="15.00" transform="matrix(1.00 0.00 0.00 1.00 564.00 84.00 ) " rx="15.00" ry="15.00" style="stroke:none;opacity:1;fill:rgb(68,154,223);" />
    <path d="M 19.156 13.888 19.156 10.3647 19.156 6.841399 25.2585 10.3647 22.2072 12.1264 z " style="stroke:none;fill-rule:evenodd;opacity:1;fill:rgb(255,255,255);" transform="matrix(1.00 0.00 0.00 1.00 564.00 84.00 ) " id="159" />
    <path d="M 19.156 22.97 19.156 19.4467 19.156 15.9234 25.2585 19.4467 22.2072 21.2084 z " style="stroke:none;fill-rule:evenodd;opacity:1;fill:rgb(255,255,255);" transform="matrix(1.00 0.00 0.00 1.00 564.00 84.00 ) " id="160" />
    <path d="M 5.5001 19.484 10.6493 19.484 16.2743 10.2485 19.3728 10.2485 M 14.6769 17.1481 16.3089 19.4828 19.2202 19.4828 M 5.500199 10.2437 10.7586 10.2437 12.1652 12.8707 " style="stroke:rgb(255,255,255);fill:none;stroke-linecap:butt;stroke-miterlimit:9;opacity:1;stroke-width:2;stroke-linejoin:miter;" transform="matrix(1.00 0.00 0.00 1.00 564.00 84.00 ) " id="161" />
    <text id="162" transform="matrix(1.00 0.00 0.00 1.00 0.00 0.00 ) " x="564.00px" y="119.00px" style="stroke:none;clip-path:url(#164_text_clipper);font-family:Microsoft Sans Serif;font-size:8.25pt;opacity:1;">
      <tspan dy="8.25pt" id="166">Y</tspan>
    </text>
    <ellipse id="168" cy="15.00" cx="15.00" transform="matrix(1.00 0.00 0.00 1.00 484.00 4.00 ) " rx="15.00" ry="15.00" style="stroke:none;opacity:1;fill:rgb(68,154,223);" />
    <path d="M 18.422 13 13.4357 18.5006 10.8556 15.9868 6.500101 20.5001 23.9571 20.48582 z " style="stroke:none;fill-rule:evenodd;opacity:1;fill:rgb(255,255,255);" transform="matrix(1.00 0.00 0.00 1.00 484.00 4.00 ) " id="172" />
    <ellipse id="173" cy="10.96" cx="10.92" transform="matrix(1.00 0.00 0.00 1.00 484.00 4.00 ) " rx="2.75" ry="2.75" style="stroke:none;opacity:1;fill:rgb(255,255,255);" />
    <text id="174" transform="matrix(1.00 0.00 0.00 1.00 0.00 0.00 ) " x="484.00px" y="39.00px" style="stroke:none;clip-path:url(#176_text_clipper);font-family:Microsoft Sans Serif;font-size:8.25pt;opacity:1;">
      <tspan dy="8.25pt" id="178">Centroid</tspan>
    </text>
    <ellipse id="180" cy="15.00" cx="15.00" transform="matrix(1.00 0.00 0.00 1.00 484.00 84.00 ) " rx="15.00" ry="15.00" style="stroke:none;opacity:1;fill:rgb(68,154,223);" />
    <path d="M 18.422 13 13.4357 18.5006 10.8556 15.9868 6.500101 20.5001 23.9571 20.48582 z " style="stroke:none;fill-rule:evenodd;opacity:1;fill:rgb(255,255,255);" transform="matrix(1.00 0.00 0.00 1.00 484.00 84.00 ) " id="181" />
    <ellipse id="182" cy="10.96" cx="10.92" transform="matrix(1.00 0.00 0.00 1.00 484.00 84.00 ) " rx="2.75" ry="2.75" style="stroke:none;opacity:1;fill:rgb(255,255,255);" />
    <text id="183" transform="matrix(1.00 0.00 0.00 1.00 0.00 0.00 ) " x="484.00px" y="119.00px" style="stroke:none;clip-path:url(#185_text_clipper);font-family:Microsoft Sans Serif;font-size:8.25pt;opacity:1;">
      <tspan dy="8.25pt" id="187">Centroid</tspan>
    </text>
    <ellipse id="189" cy="15.00" cx="15.00" transform="matrix(1.00 0.00 0.00 1.00 404.00 4.00 ) " rx="15.00" ry="15.00" style="stroke:none;opacity:1;fill:rgb(68,154,223);" />
    <path d="M 18.422 13 13.4357 18.5006 10.8556 15.9868 6.500101 20.5001 23.9571 20.48582 z " style="stroke:none;fill-rule:evenodd;opacity:1;fill:rgb(255,255,255);" transform="matrix(1.00 0.00 0.00 1.00 404.00 4.00 ) " id="190" />
    <ellipse id="191" cy="10.96" cx="10.92" transform="matrix(1.00 0.00 0.00 1.00 404.00 4.00 ) " rx="2.75" ry="2.75" style="stroke:none;opacity:1;fill:rgb(255,255,255);" />
    <text id="192" transform="matrix(1.00 0.00 0.00 1.00 0.00 0.00 ) " x="404.00px" y="39.00px" style="stroke:none;clip-path:url(#194_text_clipper);font-family:Microsoft Sans Serif;font-size:8.25pt;opacity:1;">
      <tspan dy="8.25pt" id="196">LargestBinary</tspan>
    </text>
    <text id="198" transform="matrix(1.00 0.00 0.00 1.00 0.00 0.00 ) " x="404.00px" y="51.45px" style="stroke:none;clip-path:url(#200_text_clipper);font-family:Microsoft Sans Serif;font-size:8.25pt;opacity:1;">
      <tspan dy="8.25pt" id="202">Region</tspan>
    </text>
    <ellipse id="204" cy="15.00" cx="15.00" transform="matrix(1.00 0.00 0.00 1.00 324.00 4.00 ) " rx="15.00" ry="15.00" style="stroke:none;opacity:1;fill:rgb(68,154,223);" />
    <path d="M 18.422 13 13.4357 18.5006 10.8556 15.9868 6.500101 20.5001 23.9571 20.48582 z " style="stroke:none;fill-rule:evenodd;opacity:1;fill:rgb(255,255,255);" transform="matrix(1.00 0.00 0.00 1.00 324.00 4.00 ) " id="205" />
    <ellipse id="206" cy="10.96" cx="10.92" transform="matrix(1.00 0.00 0.00 1.00 324.00 4.00 ) " rx="2.75" ry="2.75" style="stroke:none;opacity:1;fill:rgb(255,255,255);" />
    <text id="207" transform="matrix(1.00 0.00 0.00 1.00 0.00 0.00 ) " x="324.00px" y="39.00px" style="stroke:none;clip-path:url(#209_text_clipper);font-family:Microsoft Sans Serif;font-size:8.25pt;opacity:1;">
      <tspan dy="8.25pt" id="211">BinaryRegion</tspan>
    </text>
    <text id="213" transform="matrix(1.00 0.00 0.00 1.00 0.00 0.00 ) " x="324.00px" y="51.45px" style="stroke:none;clip-path:url(#215_text_clipper);font-family:Microsoft Sans Serif;font-size:8.25pt;opacity:1;">
      <tspan dy="8.25pt" id="217">Analysis</tspan>
    </text>
    <ellipse id="219" cy="15.00" cx="15.00" transform="matrix(1.00 0.00 0.00 1.00 244.00 4.00 ) " rx="15.00" ry="15.00" style="stroke:none;opacity:1;fill:rgb(68,154,223);" />
    <path d="M 18.422 13 13.4357 18.5006 10.8556 15.9868 6.500101 20.5001 23.9571 20.48582 z " style="stroke:none;fill-rule:evenodd;opacity:1;fill:rgb(255,255,255);" transform="matrix(1.00 0.00 0.00 1.00 244.00 4.00 ) " id="220" />
    <ellipse id="221" cy="10.96" cx="10.92" transform="matrix(1.00 0.00 0.00 1.00 244.00 4.00 ) " rx="2.75" ry="2.75" style="stroke:none;opacity:1;fill:rgb(255,255,255);" />
    <text id="222" transform="matrix(1.00 0.00 0.00 1.00 0.00 0.00 ) " x="244.00px" y="39.00px" style="stroke:none;clip-path:url(#224_text_clipper);font-family:Microsoft Sans Serif;font-size:8.25pt;opacity:1;">
      <tspan dy="8.25pt" id="226">FindContours</tspan>
    </text>
    <ellipse id="228" cy="15.00" cx="15.00" transform="matrix(1.00 0.00 0.00 1.00 164.00 4.00 ) " rx="15.00" ry="15.00" style="stroke:none;opacity:1;fill:rgb(68,154,223);" />
    <path d="M 18.422 13 13.4357 18.5006 10.8556 15.9868 6.500101 20.5001 23.9571 20.48582 z " style="stroke:none;fill-rule:evenodd;opacity:1;fill:rgb(255,255,255);" transform="matrix(1.00 0.00 0.00 1.00 164.00 4.00 ) " id="229" />
    <ellipse id="230" cy="10.96" cx="10.92" transform="matrix(1.00 0.00 0.00 1.00 164.00 4.00 ) " rx="2.75" ry="2.75" style="stroke:none;opacity:1;fill:rgb(255,255,255);" />
    <text id="231" transform="matrix(1.00 0.00 0.00 1.00 0.00 0.00 ) " x="164.00px" y="39.00px" style="stroke:none;clip-path:url(#233_text_clipper);font-family:Microsoft Sans Serif;font-size:8.25pt;opacity:1;">
      <tspan dy="8.25pt" id="235">HsvThreshold</tspan>
    </text>
    <ellipse id="237" cy="15.00" cx="15.00" transform="matrix(1.00 0.00 0.00 1.00 84.00 4.00 ) " rx="15.00" ry="15.00" style="stroke:none;opacity:1;fill:rgb(68,154,223);" />
    <path d="M 18.422 13 13.4357 18.5006 10.8556 15.9868 6.500101 20.5001 23.9571 20.48582 z " style="stroke:none;fill-rule:evenodd;opacity:1;fill:rgb(255,255,255);" transform="matrix(1.00 0.00 0.00 1.00 84.00 4.00 ) " id="238" />
    <ellipse id="239" cy="10.96" cx="10.92" transform="matrix(1.00 0.00 0.00 1.00 84.00 4.00 ) " rx="2.75" ry="2.75" style="stroke:none;opacity:1;fill:rgb(255,255,255);" />
    <text id="240" transform="matrix(1.00 0.00 0.00 1.00 0.00 0.00 ) " x="84.00px" y="39.00px" style="stroke:none;clip-path:url(#242_text_clipper);font-family:Microsoft Sans Serif;font-size:8.25pt;opacity:1;">
      <tspan dy="8.25pt" id="244">Crop</tspan>
    </text>
    <path style="stroke:rgb(169,169,169);fill:none;stroke-linecap:butt;stroke-miterlimit:9;opacity:1;stroke-width:2;stroke-linejoin:miter;" transform="matrix(1.00 0.00 0.00 1.00 4.00 4.00 ) " id="249" d="M 31.179 5.2 C 34.9985 11.0918 34.9814 18.682 31.13552 24.557 " />
    <ellipse id="250" cy="15.00" cx="15.00" transform="matrix(1.00 0.00 0.00 1.00 4.00 4.00 ) " rx="15.00" ry="15.00" style="stroke:none;opacity:1;fill:rgb(91,178,126);" />
    <path style="stroke:none;fill-rule:evenodd;opacity:1;fill:rgb(255,255,255);" transform="matrix(1.00 0.00 0.00 1.00 4.00 4.00 ) " id="254" d="M 23.75 9.1 19.5587 11.5211 19.5587 18.3937 23.75 20.8147 z " />
    <path style="stroke:none;fill-rule:evenodd;opacity:1;fill:rgb(255,255,255);" transform="matrix(1.00 0.00 0.00 1.00 4.00 4.00 ) " id="255" d="M 8.6927 9.2 15.7194 9.2 C 17.19 9.2 18.3739 10.4337 18.3739 11.9661 L 18.3739 17.8234 C 18.3739 19.3558 17.19 20.5893 15.7194 20.5893 L 8.692701 20.5893 C 7.222101 20.5893 6.038201 19.3558 6.038201 17.8234 L 6.038201 11.9661 C 6.038201 10.4337 7.222101 9.199999 8.692701 9.199999 z " />
    <text id="256" transform="matrix(1.00 0.00 0.00 1.00 0.00 0.00 ) " x="4.00px" y="39.00px" style="stroke:none;clip-path:url(#258_text_clipper);font-family:Microsoft Sans Serif;font-size:8.25pt;opacity:1;">
      <tspan dy="8.25pt" id="260">VideoCapture</tspan>
    </text>
    <text id="262" transform="matrix(1.00 0.00 0.00 1.00 0.00 0.00 ) " x="4.00px" y="51.45px" style="stroke:none;clip-path:url(#264_text_clipper);font-family:Microsoft Sans Serif;font-size:8.25pt;opacity:1;">
      <tspan dy="8.25pt" id="266">Device</tspan>
    </text>
  </g>
  <defs id="clips_hatches_and_gradients">
    <clipPath id="60_text_clipper">
      <rect x="964.00" y="39.00" width="47.81" height="13.83" id="61" />
    </clipPath>
    <pattern id="77_HatchBrush" patternContentUnits="userSpaceOnUse" height="8.00" patternUnits="userSpaceOnUse" width="8.00" y="0.00" x="0.00" style="stroke-linecap:butt;shape-rendering:crispEdges;">
      <rect id="78" height="8.00" style="fill:rgb(255,255,255);" width="8.00" y="0.00" x="0.00" />
      <line y1="0.00" id="79" x2="0.00" y2="8.00" x1="8.00" style="stroke:rgb(0,0,0);fill:rgb(0,0,0);" />
    </pattern>
    <clipPath id="82_text_clipper">
      <rect x="964.00" y="199.00" width="63.98" height="13.83" id="83" />
    </clipPath>
    <clipPath id="98_text_clipper">
      <rect x="884.00" y="39.00" width="24.44" height="13.83" id="99" />
    </clipPath>
    <clipPath id="108_text_clipper">
      <rect x="804.00" y="39.00" width="23.82" height="13.83" id="109" />
    </clipPath>
    <clipPath id="122_text_clipper">
      <rect x="724.00" y="39.00" width="19.47" height="13.83" id="123" />
    </clipPath>
    <clipPath id="132_text_clipper">
      <rect x="644.00" y="39.00" width="25.70" height="13.83" id="133" />
    </clipPath>
    <clipPath id="140_text_clipper">
      <rect x="644.00" y="119.00" width="25.70" height="13.83" id="141" />
    </clipPath>
    <clipPath id="154_text_clipper">
      <rect x="564.00" y="39.00" width="11.22" height="13.83" id="155" />
    </clipPath>
    <clipPath id="164_text_clipper">
      <rect x="564.00" y="119.00" width="11.22" height="13.83" id="165" />
    </clipPath>
    <clipPath id="176_text_clipper">
      <rect x="484.00" y="39.00" width="46.55" height="13.83" id="177" />
    </clipPath>
    <clipPath id="185_text_clipper">
      <rect x="484.00" y="119.00" width="46.55" height="13.83" id="186" />
    </clipPath>
    <clipPath id="194_text_clipper">
      <rect x="404.00" y="39.00" width="73.63" height="27.65" id="195" />
    </clipPath>
    <clipPath id="200_text_clipper">
      <rect x="404.00" y="51.45" width="73.63" height="27.65" id="201" />
    </clipPath>
    <clipPath id="209_text_clipper">
      <rect x="324.00" y="39.00" width="71.81" height="27.65" id="210" />
    </clipPath>
    <clipPath id="215_text_clipper">
      <rect x="324.00" y="51.45" width="71.81" height="27.65" id="216" />
    </clipPath>
    <clipPath id="224_text_clipper">
      <rect x="244.00" y="39.00" width="71.74" height="13.83" id="225" />
    </clipPath>
    <clipPath id="233_text_clipper">
      <rect x="164.00" y="39.00" width="73.63" height="13.83" id="234" />
    </clipPath>
    <clipPath id="242_text_clipper">
      <rect x="84.00" y="39.00" width="28.22" height="13.83" id="243" />
    </clipPath>
    <clipPath id="258_text_clipper">
      <rect x="4.00" y="39.00" width="73.01" height="27.65" id="259" />
    </clipPath>
    <clipPath id="264_text_clipper">
      <rect x="4.00" y="51.45" width="73.01" height="27.65" id="265" />
    </clipPath>
  </defs>
</svg>