<?xml version="1.0" encoding="UTF-8" standalone="no"?>
<!-- Created with Inkscape (http://www.inkscape.org/) -->

<svg
   xmlns:dc="http://purl.org/dc/elements/1.1/"
   xmlns:cc="http://creativecommons.org/ns#"
   xmlns:rdf="http://www.w3.org/1999/02/22-rdf-syntax-ns#"
   xmlns:svg="http://www.w3.org/2000/svg"
   xmlns="http://www.w3.org/2000/svg"
   xmlns:sodipodi="http://sodipodi.sourceforge.net/DTD/sodipodi-0.dtd"
   xmlns:inkscape="http://www.inkscape.org/namespaces/inkscape"
   width="48"
   height="48"
   viewBox="0 0 48 48"
   id="svg2"
   version="1.1"
   inkscape:version="0.91 r13725"
   sodipodi:docname="drawing.svg">
  <defs
     id="defs4">
    <clipPath
       id="clipPath4150"
       clipPathUnits="userSpaceOnUse">
      <path
         inkscape:connector-curvature="0"
         id="path4152"
         d="m 0,144.174 147.885,0 L 147.885,0 0,0 0,144.174 Z" />
    </clipPath>
  </defs>
  <sodipodi:namedview
     id="base"
     pagecolor="#ffffff"
     bordercolor="#666666"
     borderopacity="1.0"
     inkscape:pageopacity="0.0"
     inkscape:pageshadow="2"
     inkscape:zoom="5.6"
     inkscape:cx="40.344432"
     inkscape:cy="60.223632"
     inkscape:document-units="px"
     inkscape:current-layer="layer1"
     showgrid="false"
     units="px"
     inkscape:window-width="2048"
     inkscape:window-height="1089"
     inkscape:window-x="2040"
     inkscape:window-y="-8"
     inkscape:window-maximized="1" />
  <metadata
     id="metadata7">
    <rdf:RDF>
      <cc:Work
         rdf:about="">
        <dc:format>image/svg+xml</dc:format>
        <dc:type
           rdf:resource="http://purl.org/dc/dcmitype/StillImage" />
        <dc:title></dc:title>
      </cc:Work>
    </rdf:RDF>
  </metadata>
  <g
     inkscape:label="Layer 1"
     inkscape:groupmode="layer"
     id="layer1"
     transform="translate(0,-1004.3622)">
    <g
       transform="matrix(0.37010273,0,0,-0.37010273,-3.1164092,1054.0434)"
       inkscape:label="3_versions_eng_cmyka"
       id="g4144">
      <g
         id="g4146">
        <g
           clip-path="url(#clipPath4150)"
           id="g4148">
          <g
             transform="translate(106.4847,104.9012)"
             id="g4158">
            <path
               inkscape:connector-curvature="0"
               id="path4160"
               style="fill:#ffffff;fill-opacity:1;fill-rule:nonzero;stroke:none"
               d="m 0,0 c 5.117,0 9.75,-2.074 13.104,-5.426 l 13.101,13.1 C 19.498,14.381 10.234,18.527 0,18.527 c -20.466,0 -37.057,-16.59 -37.057,-37.054 l 0,-18.528 7.674,-7.675 c -2.278,-2.276 -4.87,-4.229 -7.674,-5.856 l 0,-38.965 18.528,0 0,18.528 c 0,10.232 8.296,18.529 18.529,18.529 l 8.031,0 0,15.439 -8.031,0 c -10.233,0 -18.529,8.295 -18.529,18.528 C -18.529,-8.295 -10.233,0 0,0" />
          </g>
          <g
             transform="translate(64.0018,73.2723)"
             id="g4162">
            <path
               inkscape:connector-curvature="0"
               id="path4164"
               style="fill:#ffffff;fill-opacity:1;fill-rule:nonzero;stroke:none"
               d="m 0,0 c -3.354,-3.352 -7.986,-5.426 -13.102,-5.426 -10.231,0 -18.527,8.295 -18.527,18.528 0,10.232 8.296,18.527 18.527,18.527 5.116,0 9.748,-2.074 13.102,-5.426 l 13.1,13.1 c -6.705,6.707 -15.967,10.853 -26.202,10.853 -20.465,0 -37.055,-16.59 -37.055,-37.054 0,-20.465 16.59,-37.057 37.055,-37.057 6.758,0 13.073,1.84 18.528,4.998 2.804,1.627 5.396,3.58 7.674,5.855 L 5.426,-5.426 0,0 Z" />
          </g>
        </g>
      </g>
    </g>
  </g>
</svg>
