<?xml version="1.0" standalone="yes"?>
<!DOCTYPE svg PUBLIC "-//W3C//DTD SVG 1.1//EN" "http://www.w3.org/Graphics/SVG/1.1/DTD/svg11.dtd"[
<!ENTITY E18 'stroke:none;opacity:1;fill:rgb(68,154,223);'><!ENTITY E33 'matrix(1.00 0.00 0.00 1.00 84.00 164.00 ) '><!ENTITY E26 'matrix(1.00 0.00 0.00 1.00 164.00 164.00 ) '><!ENTITY E17 'matrix(1.00 0.00 0.00 1.00 244.00 84.00 ) '><!ENTITY E8 'matrix(1.00 0.00 0.00 1.00 0.00 0.00 ) '><!ENTITY E15 'stroke:none;fill-rule:evenodd;opacity:1;fill:rgb(255,255,255);'><!ENTITY E5 'stroke:rgb(169,169,169);fill:none;stroke-linecap:butt;stroke-miterlimit:9;opacity:1;stroke-width:2;stroke-linejoin:miter;'><!ENTITY E1 'stroke-dasharray:4.00 2.00 ;stroke:rgb(169,169,169);fill:none;stroke-linecap:butt;stroke-miterlimit:9;opacity:1;stroke-width:1;stroke-linejoin:miter;'><!ENTITY E11 'M 15 0 C 15.40124 0 15.79355 0 16.1868 0.032679 L 17.4764 1.671279 C 18.19501 1.803959 18.878 1.976879 19.5521 2.217729 L 21.4286 1.483419 C 22.13968 1.823279 22.8289 2.226899 23.4726 2.670219 L 23.8493 4.621219 C 24.39461 5.086599 24.9133 5.605469 25.3788 6.150719 L 27.3298 6.494379 C 27.77262 7.137679 28.17707 7.860779 28.5166 8.57128 L 27.74584 10.44788 C 27.98674 11.12204 28.19601 11.80508 28.32852 12.52348 L 29.96712 13.81308 C 29.99807 14.2062 30.00009 14.59888 30.00009 14.99988 30.00009 15.39224 29.99671 15.76908 29.96712 16.15388 L 28.32852 17.43998 C 28.19832 18.14633 28.01721 18.85248 27.78226 19.51558 L 28.51657 21.42868 C 28.17593 22.14291 27.77461 22.82648 27.32977 23.47268 L 25.37877 23.81302 C 24.91321 24.35829 24.39455 24.87682 23.84927 25.34242 L 23.47257 27.32992 C 22.82847 27.77371 22.14007 28.17669 21.42857 28.51662 L 19.51567 27.74597 C 18.85121 27.98162 18.18377 28.19809 17.47627 28.32876 L 16.18677 29.93436 C 15.79348 29.965 15.40117 29.99982 14.99997 29.99982 14.59873 29.99982 14.17345 29.96607 13.78017 29.93436 L 12.55997 28.32876 C 11.86172 28.19999 11.14067 27.977 10.48427 27.74597 L 8.571372 28.51662 C 7.856242 28.17558 7.174472 27.7755 6.527372 27.32992 L 6.150662 25.30622 C 5.617232 24.84794 5.114162 24.34789 4.657562 23.81302 L 2.670162 23.47268 C 2.225282 22.82649 1.823962 22.14288 1.483362 21.42868 L 2.254122 19.51558 C 2.022912 18.85918 1.800192 18.13838 1.671442 17.43998 L 0.06584227 16.18678 C 0.03489427 15.79366 -9.272993E-05 15.4013 -9.272993E-05 14.99998 -9.272993E-05 14.59894 0.03489527 14.20625 0.06584227 13.81318 L 1.671442 12.52358 C 1.801892 11.81616 2.018542 11.14888 2.254122 10.48438 L 1.483362 8.571277 C 1.822922 7.860797 2.227392 7.137677 2.670162 6.494377 L 4.657562 6.150717 C 5.114192 5.615747 5.617242 5.115817 6.150662 4.657517 L 6.527372 2.670117 C 7.174102 2.224717 7.856672 1.824207 8.571372 1.483317 L 10.48427 2.217627 C 11.14757 1.982687 11.85387 1.801607 12.55997 1.671177 L 13.84607 0.0325768 C 14.23082 0.003004799 14.60761 -0.0001021996 14.99987 -0.0001021996 z '><!ENTITY E38 'stroke:rgb(0,0,0);fill:rgb(0,0,0);'><!ENTITY E20 'stroke:rgb(255,255,255);fill:none;stroke-linecap:butt;stroke-miterlimit:9;opacity:1;stroke-width:2;stroke-linejoin:miter;'><!ENTITY E2 'stroke:rgb(169,169,169);fill:none;stroke-linecap:butt;stroke-miterlimit:9;opacity:1;stroke-width:1;stroke-linejoin:miter;'><!ENTITY E6 'stroke:none;opacity:1;fill:rgb(255,255,255);'><!ENTITY E29 'matrix(1.00 0.00 0.00 1.00 84.00 84.00 ) '><!ENTITY E13 'matrix(1.00 0.00 0.00 1.00 244.00 4.00 ) '><!ENTITY E12 'stroke:none;fill-rule:evenodd;opacity:1;fill:rgb(128,128,128);'><!ENTITY E35 'matrix(1.00 0.00 0.00 1.00 4.00 84.00 ) '><!ENTITY E24 'matrix(1.00 0.00 0.00 1.00 164.00 84.00 ) '><!ENTITY E14 'M 21.674 13.548 18.8144 13.548 18.10854 16.3624 20.66044 16.3624 20.66044 18.5343 17.56554 18.5343 16.74204 21.7378 14.56114 21.7378 15.36654 18.5343 12.97744 18.5343 12.17204 21.7378 9.954938 21.7378 10.76939 18.5343 8.325989 18.5343 8.325989 16.3624 11.31229 16.3624 12.0091 13.548 9.357598 13.548 9.357598 11.3852 12.5521 11.3852 13.33035 8.263101 15.54745 8.263101 14.7692 11.3852 17.1492 11.3852 17.9365 8.263101 20.1536 8.263101 19.3663 11.3852 21.6739 11.3852 z M 16.6425 13.5299 14.2172 13.5299 13.49324 16.3895 15.92754 16.3895 z '><!ENTITY E4 'stroke:none;opacity:1;fill:rgb(238,192,75);'><!ENTITY E22 'matrix(1.00 0.00 0.00 1.00 244.00 164.00 ) '><!ENTITY E37 'stroke-linecap:butt;shape-rendering:crispEdges;'><!ENTITY E19 'M 20.824 23.115 20.824 7.098999 M 17.3572 17.48 17.3572 12.7339 M 13.8904 21.2046 13.8904 9.009602 M 10.4236 18.6248 10.4236 11.5896 M 6.9568 16.3923 6.9568 13.822 '>
]>
<svg width="398.0182" height="212.8252" id="SvgGdi_output" xmlns="http://www.w3.org/2000/svg" xmlns:xlink="http://www.w3.org/1999/xlink">
  <style>text { fill: #000; } @media (prefers-color-scheme: dark) { text { fill: #eee; } }</style>
  <rect id="background" height="100.00%" style="fill:none;" width="100.00%" y="0.00" x="0.00" />
  <g style="shape-rendering:auto;" id="root_group">
    <line y1="19.00" style="stroke-dasharray:4.00 2.00 ;stroke:rgb(169,169,169);fill:none;stroke-linecap:butt;stroke-miterlimit:9;opacity:1;stroke-width:1;stroke-linejoin:miter;" id="2" x2="320.00" y2="19.00" x1="278.00" />
    <line y1="99.00" style="stroke:rgb(169,169,169);fill:none;stroke-linecap:butt;stroke-miterlimit:9;opacity:1;stroke-width:1;stroke-linejoin:miter;" id="3" x2="320.00" y2="99.00" x1="278.00" />
    <line y1="179.00" style="stroke-dasharray:4.00 2.00 ;stroke:rgb(169,169,169);fill:none;stroke-linecap:butt;stroke-miterlimit:9;opacity:1;stroke-width:1;stroke-linejoin:miter;" id="4" x2="320.00" y2="99.00" x1="278.00" />
    <line y1="99.00" style="stroke:rgb(169,169,169);fill:none;stroke-linecap:butt;stroke-miterlimit:9;opacity:1;stroke-width:1;stroke-linejoin:miter;" id="5" x2="240.00" y2="99.00" x1="198.00" />
    <line y1="179.00" style="stroke-dasharray:4.00 2.00 ;stroke:rgb(169,169,169);fill:none;stroke-linecap:butt;stroke-miterlimit:9;opacity:1;stroke-width:1;stroke-linejoin:miter;" id="6" x2="240.00" y2="99.00" x1="198.00" />
    <line y1="99.00" style="stroke:rgb(169,169,169);fill:none;stroke-linecap:butt;stroke-miterlimit:9;opacity:1;stroke-width:1;stroke-linejoin:miter;" id="7" x2="160.00" y2="99.00" x1="118.00" />
    <line y1="179.00" style="stroke-dasharray:4.00 2.00 ;stroke:rgb(169,169,169);fill:none;stroke-linecap:butt;stroke-miterlimit:9;opacity:1;stroke-width:1;stroke-linejoin:miter;" id="8" x2="160.00" y2="99.00" x1="118.00" />
    <line y1="99.00" style="stroke-dasharray:4.00 2.00 ;stroke:rgb(169,169,169);fill:none;stroke-linecap:butt;stroke-miterlimit:9;opacity:1;stroke-width:1;stroke-linejoin:miter;" id="9" x2="80.00" y2="99.00" x1="38.00" />
    <ellipse id="42" cy="15.00" cx="15.00" rx="15.00" ry="15.00" style="stroke:none;opacity:1;fill:rgb(238,192,75);" transform="matrix(1.00 0.00 0.00 1.00 324.00 4.00 ) " />
    <ellipse id="44" cy="19.00" cx="339.00" rx="15.00" ry="15.00" style="fill:url(#45_HatchBrush);" />
    <ellipse id="49" cy="19.00" cx="324.00" rx="3.00" ry="3.00" style="stroke:rgb(169,169,169);fill:none;stroke-linecap:butt;stroke-miterlimit:9;opacity:1;stroke-width:2;stroke-linejoin:miter;" />
    <ellipse id="50" cy="19.00" cx="324.00" rx="3.00" ry="3.00" style="stroke:none;opacity:1;fill:rgb(255,255,255);" />
    <text id="51" transform="matrix(1.00 0.00 0.00 1.00 0.00 0.00 ) " x="324.00px" y="39.00px" style="stroke:none;clip-path:url(#53_text_clipper);font-family:Microsoft Sans Serif;font-size:8.25pt;opacity:1;">
      <tspan dy="8.25pt" id="55">AnalogInput</tspan>
    </text>
    <ellipse id="57" cy="15.00" cx="15.00" rx="15.00" ry="15.00" style="stroke:none;opacity:1;fill:rgb(238,192,75);" transform="matrix(1.00 0.00 0.00 1.00 324.00 84.00 ) " />
    <ellipse id="58" cy="99.00" cx="339.00" rx="15.00" ry="15.00" style="fill:url(#59_HatchBrush);" />
    <ellipse id="63" cy="99.00" cx="324.00" rx="3.00" ry="3.00" style="stroke:rgb(169,169,169);fill:none;stroke-linecap:butt;stroke-miterlimit:9;opacity:1;stroke-width:2;stroke-linejoin:miter;" />
    <ellipse id="64" cy="99.00" cx="324.00" rx="3.00" ry="3.00" style="stroke:none;opacity:1;fill:rgb(255,255,255);" />
    <text id="65" transform="matrix(1.00 0.00 0.00 1.00 0.00 0.00 ) " x="324.00px" y="119.00px" style="stroke:none;clip-path:url(#67_text_clipper);font-family:Microsoft Sans Serif;font-size:8.25pt;opacity:1;">
      <tspan dy="8.25pt" id="69">AnalogOutput</tspan>
    </text>
    <path d="M 15 0 C 15.40124 0 15.79355 0 16.1868 0.032679 L 17.4764 1.671279 C 18.19501 1.803959 18.878 1.976879 19.5521 2.217729 L 21.4286 1.483419 C 22.13968 1.823279 22.8289 2.226899 23.4726 2.670219 L 23.8493 4.621219 C 24.39461 5.086599 24.9133 5.605469 25.3788 6.150719 L 27.3298 6.494379 C 27.77262 7.137679 28.17707 7.860779 28.5166 8.57128 L 27.74584 10.44788 C 27.98674 11.12204 28.19601 11.80508 28.32852 12.52348 L 29.96712 13.81308 C 29.99807 14.2062 30.00009 14.59888 30.00009 14.99988 30.00009 15.39224 29.99671 15.76908 29.96712 16.15388 L 28.32852 17.43998 C 28.19832 18.14633 28.01721 18.85248 27.78226 19.51558 L 28.51657 21.42868 C 28.17593 22.14291 27.77461 22.82648 27.32977 23.47268 L 25.37877 23.81302 C 24.91321 24.35829 24.39455 24.87682 23.84927 25.34242 L 23.47257 27.32992 C 22.82847 27.77371 22.14007 28.17669 21.42857 28.51662 L 19.51567 27.74597 C 18.85121 27.98162 18.18377 28.19809 17.47627 28.32876 L 16.18677 29.93436 C 15.79348 29.965 15.40117 29.99982 14.99997 29.99982 14.59873 29.99982 14.17345 29.96607 13.78017 29.93436 L 12.55997 28.32876 C 11.86172 28.19999 11.14067 27.977 10.48427 27.74597 L 8.571372 28.51662 C 7.856242 28.17558 7.174472 27.7755 6.527372 27.32992 L 6.150662 25.30622 C 5.617232 24.84794 5.114162 24.34789 4.657562 23.81302 L 2.670162 23.47268 C 2.225282 22.82649 1.823962 22.14288 1.483362 21.42868 L 2.254122 19.51558 C 2.022912 18.85918 1.800192 18.13838 1.671442 17.43998 L 0.06584227 16.18678 C 0.03489427 15.79366 -9.272993E-05 15.4013 -9.272993E-05 14.99998 -9.272993E-05 14.59894 0.03489527 14.20625 0.06584227 13.81318 L 1.671442 12.52358 C 1.801892 11.81616 2.018542 11.14888 2.254122 10.48438 L 1.483362 8.571277 C 1.822922 7.860797 2.227392 7.137677 2.670162 6.494377 L 4.657562 6.150717 C 5.114192 5.615747 5.617242 5.115817 6.150662 4.657517 L 6.527372 2.670117 C 7.174102 2.224717 7.856672 1.824207 8.571372 1.483317 L 10.48427 2.217627 C 11.14757 1.982687 11.85387 1.801607 12.55997 1.671177 L 13.84607 0.0325768 C 14.23082 0.003004799 14.60761 -0.0001021996 14.99987 -0.0001021996 z " style="stroke:none;fill-rule:evenodd;opacity:1;fill:rgb(128,128,128);" transform="matrix(1.00 0.00 0.00 1.00 244.00 4.00 ) " id="73" />
    <path d="M 21.674 13.548 18.8144 13.548 18.10854 16.3624 20.66044 16.3624 20.66044 18.5343 17.56554 18.5343 16.74204 21.7378 14.56114 21.7378 15.36654 18.5343 12.97744 18.5343 12.17204 21.7378 9.954938 21.7378 10.76939 18.5343 8.325989 18.5343 8.325989 16.3624 11.31229 16.3624 12.0091 13.548 9.357598 13.548 9.357598 11.3852 12.5521 11.3852 13.33035 8.263101 15.54745 8.263101 14.7692 11.3852 17.1492 11.3852 17.9365 8.263101 20.1536 8.263101 19.3663 11.3852 21.6739 11.3852 z M 16.6425 13.5299 14.2172 13.5299 13.49324 16.3895 15.92754 16.3895 z " style="stroke:none;fill-rule:evenodd;opacity:1;fill:rgb(255,255,255);" transform="matrix(1.00 0.00 0.00 1.00 244.00 4.00 ) " id="76" />
    <text id="77" transform="matrix(1.00 0.00 0.00 1.00 0.00 0.00 ) " x="244.00px" y="39.00px" style="stroke:none;clip-path:url(#79_text_clipper);font-family:Microsoft Sans Serif;font-size:8.25pt;opacity:1;">
      <tspan dy="8.25pt" id="81">1</tspan>
    </text>
    <ellipse id="85" cy="15.00" cx="15.00" transform="matrix(1.00 0.00 0.00 1.00 244.00 84.00 ) " rx="15.00" ry="15.00" style="stroke:none;opacity:1;fill:rgb(68,154,223);" />
    <path d="M 20.824 23.115 20.824 7.098999 M 17.3572 17.48 17.3572 12.7339 M 13.8904 21.2046 13.8904 9.009602 M 10.4236 18.6248 10.4236 11.5896 M 6.9568 16.3923 6.9568 13.822 " style="stroke:rgb(255,255,255);fill:none;stroke-linecap:butt;stroke-miterlimit:9;opacity:1;stroke-width:2;stroke-linejoin:miter;" transform="matrix(1.00 0.00 0.00 1.00 244.00 84.00 ) " id="88" />
    <text id="89" transform="matrix(1.00 0.00 0.00 1.00 0.00 0.00 ) " x="244.00px" y="119.00px" style="stroke:none;clip-path:url(#91_text_clipper);font-family:Microsoft Sans Serif;font-size:8.25pt;opacity:1;">
      <tspan dy="8.25pt" id="93">ConvertScale</tspan>
    </text>
    <path d="M 15 0 C 15.40124 0 15.79355 0 16.1868 0.032679 L 17.4764 1.671279 C 18.19501 1.803959 18.878 1.976879 19.5521 2.217729 L 21.4286 1.483419 C 22.13968 1.823279 22.8289 2.226899 23.4726 2.670219 L 23.8493 4.621219 C 24.39461 5.086599 24.9133 5.605469 25.3788 6.150719 L 27.3298 6.494379 C 27.77262 7.137679 28.17707 7.860779 28.5166 8.57128 L 27.74584 10.44788 C 27.98674 11.12204 28.19601 11.80508 28.32852 12.52348 L 29.96712 13.81308 C 29.99807 14.2062 30.00009 14.59888 30.00009 14.99988 30.00009 15.39224 29.99671 15.76908 29.96712 16.15388 L 28.32852 17.43998 C 28.19832 18.14633 28.01721 18.85248 27.78226 19.51558 L 28.51657 21.42868 C 28.17593 22.14291 27.77461 22.82648 27.32977 23.47268 L 25.37877 23.81302 C 24.91321 24.35829 24.39455 24.87682 23.84927 25.34242 L 23.47257 27.32992 C 22.82847 27.77371 22.14007 28.17669 21.42857 28.51662 L 19.51567 27.74597 C 18.85121 27.98162 18.18377 28.19809 17.47627 28.32876 L 16.18677 29.93436 C 15.79348 29.965 15.40117 29.99982 14.99997 29.99982 14.59873 29.99982 14.17345 29.96607 13.78017 29.93436 L 12.55997 28.32876 C 11.86172 28.19999 11.14067 27.977 10.48427 27.74597 L 8.571372 28.51662 C 7.856242 28.17558 7.174472 27.7755 6.527372 27.32992 L 6.150662 25.30622 C 5.617232 24.84794 5.114162 24.34789 4.657562 23.81302 L 2.670162 23.47268 C 2.225282 22.82649 1.823962 22.14288 1.483362 21.42868 L 2.254122 19.51558 C 2.022912 18.85918 1.800192 18.13838 1.671442 17.43998 L 0.06584227 16.18678 C 0.03489427 15.79366 -9.272993E-05 15.4013 -9.272993E-05 14.99998 -9.272993E-05 14.59894 0.03489527 14.20625 0.06584227 13.81318 L 1.671442 12.52358 C 1.801892 11.81616 2.018542 11.14888 2.254122 10.48438 L 1.483362 8.571277 C 1.822922 7.860797 2.227392 7.137677 2.670162 6.494377 L 4.657562 6.150717 C 5.114192 5.615747 5.617242 5.115817 6.150662 4.657517 L 6.527372 2.670117 C 7.174102 2.224717 7.856672 1.824207 8.571372 1.483317 L 10.48427 2.217627 C 11.14757 1.982687 11.85387 1.801607 12.55997 1.671177 L 13.84607 0.0325768 C 14.23082 0.003004799 14.60761 -0.0001021996 14.99987 -0.0001021996 z " style="stroke:none;fill-rule:evenodd;opacity:1;fill:rgb(128,128,128);" transform="matrix(1.00 0.00 0.00 1.00 244.00 164.00 ) " id="95" />
    <path d="M 21.674 13.548 18.8144 13.548 18.10854 16.3624 20.66044 16.3624 20.66044 18.5343 17.56554 18.5343 16.74204 21.7378 14.56114 21.7378 15.36654 18.5343 12.97744 18.5343 12.17204 21.7378 9.954938 21.7378 10.76939 18.5343 8.325989 18.5343 8.325989 16.3624 11.31229 16.3624 12.0091 13.548 9.357598 13.548 9.357598 11.3852 12.5521 11.3852 13.33035 8.263101 15.54745 8.263101 14.7692 11.3852 17.1492 11.3852 17.9365 8.263101 20.1536 8.263101 19.3663 11.3852 21.6739 11.3852 z M 16.6425 13.5299 14.2172 13.5299 13.49324 16.3895 15.92754 16.3895 z " style="stroke:none;fill-rule:evenodd;opacity:1;fill:rgb(255,255,255);" transform="matrix(1.00 0.00 0.00 1.00 244.00 164.00 ) " id="96" />
    <text id="97" transform="matrix(1.00 0.00 0.00 1.00 0.00 0.00 ) " x="244.00px" y="199.00px" style="stroke:none;clip-path:url(#99_text_clipper);font-family:Microsoft Sans Serif;font-size:8.25pt;opacity:1;">
      <tspan dy="8.25pt" id="101">2.3</tspan>
    </text>
    <ellipse id="103" cy="15.00" cx="15.00" transform="matrix(1.00 0.00 0.00 1.00 164.00 84.00 ) " rx="15.00" ry="15.00" style="stroke:none;opacity:1;fill:rgb(68,154,223);" />
    <path d="M 20.824 23.115 20.824 7.098999 M 17.3572 17.48 17.3572 12.7339 M 13.8904 21.2046 13.8904 9.009602 M 10.4236 18.6248 10.4236 11.5896 M 6.9568 16.3923 6.9568 13.822 " style="stroke:rgb(255,255,255);fill:none;stroke-linecap:butt;stroke-miterlimit:9;opacity:1;stroke-width:2;stroke-linejoin:miter;" transform="matrix(1.00 0.00 0.00 1.00 164.00 84.00 ) " id="104" />
    <text id="105" transform="matrix(1.00 0.00 0.00 1.00 0.00 0.00 ) " x="164.00px" y="119.00px" style="stroke:none;clip-path:url(#107_text_clipper);font-family:Microsoft Sans Serif;font-size:8.25pt;opacity:1;">
      <tspan dy="8.25pt" id="109">ConvertScale</tspan>
    </text>
    <path d="M 15 0 C 15.40124 0 15.79355 0 16.1868 0.032679 L 17.4764 1.671279 C 18.19501 1.803959 18.878 1.976879 19.5521 2.217729 L 21.4286 1.483419 C 22.13968 1.823279 22.8289 2.226899 23.4726 2.670219 L 23.8493 4.621219 C 24.39461 5.086599 24.9133 5.605469 25.3788 6.150719 L 27.3298 6.494379 C 27.77262 7.137679 28.17707 7.860779 28.5166 8.57128 L 27.74584 10.44788 C 27.98674 11.12204 28.19601 11.80508 28.32852 12.52348 L 29.96712 13.81308 C 29.99807 14.2062 30.00009 14.59888 30.00009 14.99988 30.00009 15.39224 29.99671 15.76908 29.96712 16.15388 L 28.32852 17.43998 C 28.19832 18.14633 28.01721 18.85248 27.78226 19.51558 L 28.51657 21.42868 C 28.17593 22.14291 27.77461 22.82648 27.32977 23.47268 L 25.37877 23.81302 C 24.91321 24.35829 24.39455 24.87682 23.84927 25.34242 L 23.47257 27.32992 C 22.82847 27.77371 22.14007 28.17669 21.42857 28.51662 L 19.51567 27.74597 C 18.85121 27.98162 18.18377 28.19809 17.47627 28.32876 L 16.18677 29.93436 C 15.79348 29.965 15.40117 29.99982 14.99997 29.99982 14.59873 29.99982 14.17345 29.96607 13.78017 29.93436 L 12.55997 28.32876 C 11.86172 28.19999 11.14067 27.977 10.48427 27.74597 L 8.571372 28.51662 C 7.856242 28.17558 7.174472 27.7755 6.527372 27.32992 L 6.150662 25.30622 C 5.617232 24.84794 5.114162 24.34789 4.657562 23.81302 L 2.670162 23.47268 C 2.225282 22.82649 1.823962 22.14288 1.483362 21.42868 L 2.254122 19.51558 C 2.022912 18.85918 1.800192 18.13838 1.671442 17.43998 L 0.06584227 16.18678 C 0.03489427 15.79366 -9.272993E-05 15.4013 -9.272993E-05 14.99998 -9.272993E-05 14.59894 0.03489527 14.20625 0.06584227 13.81318 L 1.671442 12.52358 C 1.801892 11.81616 2.018542 11.14888 2.254122 10.48438 L 1.483362 8.571277 C 1.822922 7.860797 2.227392 7.137677 2.670162 6.494377 L 4.657562 6.150717 C 5.114192 5.615747 5.617242 5.115817 6.150662 4.657517 L 6.527372 2.670117 C 7.174102 2.224717 7.856672 1.824207 8.571372 1.483317 L 10.48427 2.217627 C 11.14757 1.982687 11.85387 1.801607 12.55997 1.671177 L 13.84607 0.0325768 C 14.23082 0.003004799 14.60761 -0.0001021996 14.99987 -0.0001021996 z " style="stroke:none;fill-rule:evenodd;opacity:1;fill:rgb(128,128,128);" transform="matrix(1.00 0.00 0.00 1.00 164.00 164.00 ) " id="111" />
    <path d="M 21.674 13.548 18.8144 13.548 18.10854 16.3624 20.66044 16.3624 20.66044 18.5343 17.56554 18.5343 16.74204 21.7378 14.56114 21.7378 15.36654 18.5343 12.97744 18.5343 12.17204 21.7378 9.954938 21.7378 10.76939 18.5343 8.325989 18.5343 8.325989 16.3624 11.31229 16.3624 12.0091 13.548 9.357598 13.548 9.357598 11.3852 12.5521 11.3852 13.33035 8.263101 15.54745 8.263101 14.7692 11.3852 17.1492 11.3852 17.9365 8.263101 20.1536 8.263101 19.3663 11.3852 21.6739 11.3852 z M 16.6425 13.5299 14.2172 13.5299 13.49324 16.3895 15.92754 16.3895 z " style="stroke:none;fill-rule:evenodd;opacity:1;fill:rgb(255,255,255);" transform="matrix(1.00 0.00 0.00 1.00 164.00 164.00 ) " id="112" />
    <text id="113" transform="matrix(1.00 0.00 0.00 1.00 0.00 0.00 ) " x="164.00px" y="199.00px" style="stroke:none;clip-path:url(#115_text_clipper);font-family:Microsoft Sans Serif;font-size:8.25pt;opacity:1;">
      <tspan dy="8.25pt" id="117">2.2</tspan>
    </text>
    <path style="stroke:rgb(169,169,169);fill:none;stroke-linecap:butt;stroke-miterlimit:9;opacity:1;stroke-width:2;stroke-linejoin:miter;" transform="matrix(1.00 0.00 0.00 1.00 84.00 84.00 ) " id="122" d="M 31.179 5.2 C 34.9985 11.0918 34.9814 18.682 31.13552 24.557 " />
    <ellipse id="123" cy="15.00" cx="15.00" transform="matrix(1.00 0.00 0.00 1.00 84.00 84.00 ) " rx="15.00" ry="15.00" style="stroke:none;opacity:1;fill:rgb(91,178,126);" />
    <path d="M 20.824 23.115 20.824 7.098999 M 17.3572 17.48 17.3572 12.7339 M 13.8904 21.2046 13.8904 9.009602 M 10.4236 18.6248 10.4236 11.5896 M 6.9568 16.3923 6.9568 13.822 " style="stroke:rgb(255,255,255);fill:none;stroke-linecap:butt;stroke-miterlimit:9;opacity:1;stroke-width:2;stroke-linejoin:miter;" transform="matrix(1.00 0.00 0.00 1.00 84.00 84.00 ) " id="124" />
    <text id="125" transform="matrix(1.00 0.00 0.00 1.00 0.00 0.00 ) " x="84.00px" y="119.00px" style="stroke:none;clip-path:url(#127_text_clipper);font-family:Microsoft Sans Serif;font-size:8.25pt;opacity:1;">
      <tspan dy="8.25pt" id="129">Function</tspan>
    </text>
    <text id="131" transform="matrix(1.00 0.00 0.00 1.00 0.00 0.00 ) " x="84.00px" y="131.45px" style="stroke:none;clip-path:url(#133_text_clipper);font-family:Microsoft Sans Serif;font-size:8.25pt;opacity:1;">
      <tspan dy="8.25pt" id="135">Generator</tspan>
    </text>
    <path d="M 15 0 C 15.40124 0 15.79355 0 16.1868 0.032679 L 17.4764 1.671279 C 18.19501 1.803959 18.878 1.976879 19.5521 2.217729 L 21.4286 1.483419 C 22.13968 1.823279 22.8289 2.226899 23.4726 2.670219 L 23.8493 4.621219 C 24.39461 5.086599 24.9133 5.605469 25.3788 6.150719 L 27.3298 6.494379 C 27.77262 7.137679 28.17707 7.860779 28.5166 8.57128 L 27.74584 10.44788 C 27.98674 11.12204 28.19601 11.80508 28.32852 12.52348 L 29.96712 13.81308 C 29.99807 14.2062 30.00009 14.59888 30.00009 14.99988 30.00009 15.39224 29.99671 15.76908 29.96712 16.15388 L 28.32852 17.43998 C 28.19832 18.14633 28.01721 18.85248 27.78226 19.51558 L 28.51657 21.42868 C 28.17593 22.14291 27.77461 22.82648 27.32977 23.47268 L 25.37877 23.81302 C 24.91321 24.35829 24.39455 24.87682 23.84927 25.34242 L 23.47257 27.32992 C 22.82847 27.77371 22.14007 28.17669 21.42857 28.51662 L 19.51567 27.74597 C 18.85121 27.98162 18.18377 28.19809 17.47627 28.32876 L 16.18677 29.93436 C 15.79348 29.965 15.40117 29.99982 14.99997 29.99982 14.59873 29.99982 14.17345 29.96607 13.78017 29.93436 L 12.55997 28.32876 C 11.86172 28.19999 11.14067 27.977 10.48427 27.74597 L 8.571372 28.51662 C 7.856242 28.17558 7.174472 27.7755 6.527372 27.32992 L 6.150662 25.30622 C 5.617232 24.84794 5.114162 24.34789 4.657562 23.81302 L 2.670162 23.47268 C 2.225282 22.82649 1.823962 22.14288 1.483362 21.42868 L 2.254122 19.51558 C 2.022912 18.85918 1.800192 18.13838 1.671442 17.43998 L 0.06584227 16.18678 C 0.03489427 15.79366 -9.272993E-05 15.4013 -9.272993E-05 14.99998 -9.272993E-05 14.59894 0.03489527 14.20625 0.06584227 13.81318 L 1.671442 12.52358 C 1.801892 11.81616 2.018542 11.14888 2.254122 10.48438 L 1.483362 8.571277 C 1.822922 7.860797 2.227392 7.137677 2.670162 6.494377 L 4.657562 6.150717 C 5.114192 5.615747 5.617242 5.115817 6.150662 4.657517 L 6.527372 2.670117 C 7.174102 2.224717 7.856672 1.824207 8.571372 1.483317 L 10.48427 2.217627 C 11.14757 1.982687 11.85387 1.801607 12.55997 1.671177 L 13.84607 0.0325768 C 14.23082 0.003004799 14.60761 -0.0001021996 14.99987 -0.0001021996 z " style="stroke:none;fill-rule:evenodd;opacity:1;fill:rgb(128,128,128);" transform="matrix(1.00 0.00 0.00 1.00 84.00 164.00 ) " id="137" />
    <path d="M 21.674 13.548 18.8144 13.548 18.10854 16.3624 20.66044 16.3624 20.66044 18.5343 17.56554 18.5343 16.74204 21.7378 14.56114 21.7378 15.36654 18.5343 12.97744 18.5343 12.17204 21.7378 9.954938 21.7378 10.76939 18.5343 8.325989 18.5343 8.325989 16.3624 11.31229 16.3624 12.0091 13.548 9.357598 13.548 9.357598 11.3852 12.5521 11.3852 13.33035 8.263101 15.54745 8.263101 14.7692 11.3852 17.1492 11.3852 17.9365 8.263101 20.1536 8.263101 19.3663 11.3852 21.6739 11.3852 z M 16.6425 13.5299 14.2172 13.5299 13.49324 16.3895 15.92754 16.3895 z " style="stroke:none;fill-rule:evenodd;opacity:1;fill:rgb(255,255,255);" transform="matrix(1.00 0.00 0.00 1.00 84.00 164.00 ) " id="138" />
    <text id="139" transform="matrix(1.00 0.00 0.00 1.00 0.00 0.00 ) " x="84.00px" y="199.00px" style="stroke:none;clip-path:url(#141_text_clipper);font-family:Microsoft Sans Serif;font-size:8.25pt;opacity:1;">
      <tspan dy="8.25pt" id="143">2.1</tspan>
    </text>
    <path d="M 15 0 C 15.40124 0 15.79355 0 16.1868 0.032679 L 17.4764 1.671279 C 18.19501 1.803959 18.878 1.976879 19.5521 2.217729 L 21.4286 1.483419 C 22.13968 1.823279 22.8289 2.226899 23.4726 2.670219 L 23.8493 4.621219 C 24.39461 5.086599 24.9133 5.605469 25.3788 6.150719 L 27.3298 6.494379 C 27.77262 7.137679 28.17707 7.860779 28.5166 8.57128 L 27.74584 10.44788 C 27.98674 11.12204 28.19601 11.80508 28.32852 12.52348 L 29.96712 13.81308 C 29.99807 14.2062 30.00009 14.59888 30.00009 14.99988 30.00009 15.39224 29.99671 15.76908 29.96712 16.15388 L 28.32852 17.43998 C 28.19832 18.14633 28.01721 18.85248 27.78226 19.51558 L 28.51657 21.42868 C 28.17593 22.14291 27.77461 22.82648 27.32977 23.47268 L 25.37877 23.81302 C 24.91321 24.35829 24.39455 24.87682 23.84927 25.34242 L 23.47257 27.32992 C 22.82847 27.77371 22.14007 28.17669 21.42857 28.51662 L 19.51567 27.74597 C 18.85121 27.98162 18.18377 28.19809 17.47627 28.32876 L 16.18677 29.93436 C 15.79348 29.965 15.40117 29.99982 14.99997 29.99982 14.59873 29.99982 14.17345 29.96607 13.78017 29.93436 L 12.55997 28.32876 C 11.86172 28.19999 11.14067 27.977 10.48427 27.74597 L 8.571372 28.51662 C 7.856242 28.17558 7.174472 27.7755 6.527372 27.32992 L 6.150662 25.30622 C 5.617232 24.84794 5.114162 24.34789 4.657562 23.81302 L 2.670162 23.47268 C 2.225282 22.82649 1.823962 22.14288 1.483362 21.42868 L 2.254122 19.51558 C 2.022912 18.85918 1.800192 18.13838 1.671442 17.43998 L 0.06584227 16.18678 C 0.03489427 15.79366 -9.272993E-05 15.4013 -9.272993E-05 14.99998 -9.272993E-05 14.59894 0.03489527 14.20625 0.06584227 13.81318 L 1.671442 12.52358 C 1.801892 11.81616 2.018542 11.14888 2.254122 10.48438 L 1.483362 8.571277 C 1.822922 7.860797 2.227392 7.137677 2.670162 6.494377 L 4.657562 6.150717 C 5.114192 5.615747 5.617242 5.115817 6.150662 4.657517 L 6.527372 2.670117 C 7.174102 2.224717 7.856672 1.824207 8.571372 1.483317 L 10.48427 2.217627 C 11.14757 1.982687 11.85387 1.801607 12.55997 1.671177 L 13.84607 0.0325768 C 14.23082 0.003004799 14.60761 -0.0001021996 14.99987 -0.0001021996 z " style="stroke:none;fill-rule:evenodd;opacity:1;fill:rgb(128,128,128);" transform="matrix(1.00 0.00 0.00 1.00 4.00 84.00 ) " id="145" />
    <path d="M 21.674 13.548 18.8144 13.548 18.10854 16.3624 20.66044 16.3624 20.66044 18.5343 17.56554 18.5343 16.74204 21.7378 14.56114 21.7378 15.36654 18.5343 12.97744 18.5343 12.17204 21.7378 9.954938 21.7378 10.76939 18.5343 8.325989 18.5343 8.325989 16.3624 11.31229 16.3624 12.0091 13.548 9.357598 13.548 9.357598 11.3852 12.5521 11.3852 13.33035 8.263101 15.54745 8.263101 14.7692 11.3852 17.1492 11.3852 17.9365 8.263101 20.1536 8.263101 19.3663 11.3852 21.6739 11.3852 z M 16.6425 13.5299 14.2172 13.5299 13.49324 16.3895 15.92754 16.3895 z " style="stroke:none;fill-rule:evenodd;opacity:1;fill:rgb(255,255,255);" transform="matrix(1.00 0.00 0.00 1.00 4.00 84.00 ) " id="146" />
    <text id="147" transform="matrix(1.00 0.00 0.00 1.00 0.00 0.00 ) " x="4.00px" y="119.00px" style="stroke:none;clip-path:url(#149_text_clipper);font-family:Microsoft Sans Serif;font-size:8.25pt;opacity:1;">
      <tspan dy="8.25pt" id="151">2</tspan>
    </text>
  </g>
  <defs id="clips_hatches_and_gradients">
    <pattern id="45_HatchBrush" patternContentUnits="userSpaceOnUse" height="8.00" style="stroke-linecap:butt;shape-rendering:crispEdges;" patternUnits="userSpaceOnUse" width="8.00" y="0.00" x="0.00">
      <rect id="46" height="8.00" style="fill:rgb(255,255,255);" width="8.00" y="0.00" x="0.00" />
      <line y1="0.00" style="stroke:rgb(0,0,0);fill:rgb(0,0,0);" id="47" x2="8.00" y2="8.00" x1="0.00" />
      <line y1="0.00" style="stroke:rgb(0,0,0);fill:rgb(0,0,0);" id="48" x2="0.00" y2="8.00" x1="8.00" />
    </pattern>
    <clipPath id="53_text_clipper">
      <rect x="324.00" y="39.00" width="64.20" height="13.83" id="54" />
    </clipPath>
    <pattern id="59_HatchBrush" patternContentUnits="userSpaceOnUse" height="8.00" style="stroke-linecap:butt;shape-rendering:crispEdges;" patternUnits="userSpaceOnUse" width="8.00" y="0.00" x="0.00">
      <rect id="60" height="8.00" style="fill:rgb(255,255,255);" width="8.00" y="0.00" x="0.00" />
      <line y1="0.00" style="stroke:rgb(0,0,0);fill:rgb(0,0,0);" id="61" x2="8.00" y2="8.00" x1="0.00" />
      <line y1="0.00" style="stroke:rgb(0,0,0);fill:rgb(0,0,0);" id="62" x2="0.00" y2="8.00" x1="8.00" />
    </pattern>
    <clipPath id="67_text_clipper">
      <rect x="324.00" y="119.00" width="73.02" height="13.83" id="68" />
    </clipPath>
    <clipPath id="79_text_clipper">
      <rect x="244.00" y="39.00" width="9.97" height="13.83" id="80" />
    </clipPath>
    <clipPath id="91_text_clipper">
      <rect x="244.00" y="119.00" width="71.74" height="13.83" id="92" />
    </clipPath>
    <clipPath id="99_text_clipper">
      <rect x="244.00" y="199.00" width="19.41" height="13.83" id="100" />
    </clipPath>
    <clipPath id="107_text_clipper">
      <rect x="164.00" y="119.00" width="71.74" height="13.83" id="108" />
    </clipPath>
    <clipPath id="115_text_clipper">
      <rect x="164.00" y="199.00" width="19.41" height="13.83" id="116" />
    </clipPath>
    <clipPath id="127_text_clipper">
      <rect x="84.00" y="119.00" width="54.67" height="27.65" id="128" />
    </clipPath>
    <clipPath id="133_text_clipper">
      <rect x="84.00" y="131.45" width="54.67" height="27.65" id="134" />
    </clipPath>
    <clipPath id="141_text_clipper">
      <rect x="84.00" y="199.00" width="19.41" height="13.83" id="142" />
    </clipPath>
    <clipPath id="149_text_clipper">
      <rect x="4.00" y="119.00" width="9.97" height="13.83" id="150" />
    </clipPath>
  </defs>
</svg>